<svg width="50" height="50" viewBox="0 0 50 50" fill="none" xmlns="http://www.w3.org/2000/svg">
<g clip-path="url(#clip0)">
<path d="M39.8437 22.6562C39.4363 22.6578 39.0293 22.6839 38.625 22.7344L36.1016 10.1562C36.2792 10.1181 36.4381 10.0193 36.5507 9.87668C36.6634 9.73408 36.7228 9.55668 36.7187 9.375C36.7187 9.1678 36.6364 8.96909 36.4899 8.82257C36.3434 8.67606 36.1447 8.59375 35.9375 8.59375H33.5937C33.3865 8.59375 33.1878 8.67606 33.0413 8.82257C32.8948 8.96909 32.8125 9.1678 32.8125 9.375C32.8125 9.5822 32.8948 9.78091 33.0413 9.92743C33.1878 10.0739 33.3865 10.1562 33.5937 10.1562H34.5156L35.0703 12.9453L29.2187 17.25C29.1289 17.3076 29.0519 17.383 28.9923 17.4715C28.9327 17.56 28.8919 17.6598 28.8724 17.7647C28.8529 17.8696 28.855 17.9773 28.8788 18.0814C28.9025 18.1854 28.9473 18.2834 29.0103 18.3695C29.0734 18.4555 29.1534 18.5278 29.2455 18.5817C29.3375 18.6356 29.4397 18.6702 29.5456 18.6831C29.6515 18.6961 29.7589 18.6872 29.8612 18.6571C29.9636 18.6269 30.0587 18.5761 30.1406 18.5078L33.1406 16.3047L25.6172 28.4687C25.1842 28.2469 24.7053 28.1291 24.2187 28.125H24.0937L23.3125 23.5234L27.0234 20.7969C27.1913 20.6746 27.3037 20.4907 27.3359 20.2856C27.3681 20.0805 27.3176 19.871 27.1953 19.7031C27.0731 19.5353 26.8891 19.4229 26.684 19.3907C26.4789 19.3584 26.2694 19.409 26.1016 19.5312L22.6562 22.1094L16.4062 14.0625H17.9687C18.1759 14.0625 18.3747 13.9802 18.5212 13.8337C18.6677 13.6872 18.75 13.4885 18.75 13.2812C18.75 13.074 18.6677 12.8753 18.5212 12.7288C18.3747 12.5823 18.1759 12.5 17.9687 12.5H11.7187C11.5115 12.5 11.3128 12.5823 11.1663 12.7288C11.0198 12.8753 10.9375 13.074 10.9375 13.2812C10.9375 13.4885 11.0198 13.6872 11.1663 13.8337C11.3128 13.9802 11.5115 14.0625 11.7187 14.0625H14.4609L21.3594 23.0312L17.5312 25.8438C16.101 24.3338 14.2417 23.2994 12.2046 22.8802C10.1675 22.461 8.05081 22.6774 6.14062 23.5C5.95 23.5818 5.79969 23.7361 5.72277 23.9287C5.64585 24.1214 5.64862 24.3367 5.73047 24.5273C5.81231 24.718 5.96653 24.8683 6.15919 24.9452C6.35186 25.0221 6.56718 25.0193 6.75781 24.9375C8.3458 24.2554 10.1026 24.068 11.7987 24.3997C13.4948 24.7314 15.0516 25.5668 16.2656 26.7969L8.91406 32.2031C8.78953 32.3028 8.69851 32.4383 8.65323 32.5912C8.60795 32.7442 8.61059 32.9074 8.66078 33.0588C8.71097 33.2102 8.80631 33.3426 8.93399 33.4383C9.06167 33.5339 9.21557 33.5882 9.375 33.5937H9.45312L18.75 32.6094V32.8125C18.7503 34.1955 18.4168 35.5581 17.7778 36.7846C17.1389 38.0111 16.2133 39.0653 15.0799 39.8576C13.9464 40.65 12.6384 41.1571 11.267 41.3358C9.89567 41.5146 8.50142 41.3597 7.2027 40.8844C5.90398 40.4091 4.73915 39.6274 3.80714 38.6056C2.87513 37.5839 2.20348 36.3523 1.84922 35.0155C1.49497 33.6787 1.46858 32.2761 1.77229 30.9269C2.076 29.5777 2.70084 28.3217 3.59375 27.2656C3.72843 27.1071 3.79462 26.9016 3.77778 26.6943C3.76093 26.487 3.66241 26.2948 3.5039 26.1602C3.3454 26.0255 3.13988 25.9593 2.93256 25.9761C2.72525 25.993 2.53311 26.0915 2.39843 26.25C1.34394 27.498 0.606108 28.982 0.247562 30.5761C-0.110983 32.1701 -0.0796584 33.8271 0.338879 35.4065C0.757416 36.9858 1.55081 38.4409 2.65172 39.6482C3.75263 40.8554 5.12856 41.7793 6.66272 42.3413C8.19689 42.9033 9.844 43.0869 11.4643 42.8765C13.0845 42.6661 14.6301 42.0678 15.9698 41.1326C17.3095 40.1974 18.4038 38.9527 19.1598 37.5043C19.9159 36.0558 20.3113 34.4464 20.3125 32.8125C20.3125 32.6875 20.3125 32.5703 20.3125 32.4453L21.3203 32.3359C21.47 32.7553 21.7076 33.1379 22.0171 33.458C22.3267 33.7781 22.7011 34.0284 23.1152 34.192C23.5294 34.3556 23.9737 34.4288 24.4185 34.4068C24.8632 34.3847 25.2982 34.2678 25.6941 34.0639C26.09 33.8601 26.4377 33.574 26.7141 33.2248C26.9904 32.8756 27.1889 32.4714 27.2963 32.0392C27.4037 31.607 27.4175 31.1569 27.3367 30.719C27.256 30.2811 27.0826 29.8654 26.8281 29.5L35.5781 15.3672L37.1406 23.0391C34.6625 23.7396 32.5431 25.3553 31.2111 27.5593C29.8792 29.7632 29.4342 32.3909 29.9662 34.9105C30.4982 37.4301 31.9675 39.6536 34.0768 41.131C36.186 42.6084 38.7777 43.2293 41.3275 42.8682C43.8772 42.5071 46.1946 41.191 47.8107 39.186C49.4268 37.1811 50.2209 34.637 50.0324 32.0688C49.8438 29.5005 48.6867 27.0997 46.7952 25.3523C44.9036 23.6048 42.4189 22.6411 39.8437 22.6562V22.6562ZM12.1641 31.7344L17.2656 27.9844C17.9017 28.9139 18.3477 29.96 18.5781 31.0625L12.1641 31.7344ZM18.5234 27.0469L21.875 24.5703L22.5547 28.6016C22.1688 28.8406 21.8396 29.1608 21.59 29.5399C21.3404 29.919 21.1764 30.3479 21.1094 30.7969L20.0937 30.9062C19.84 29.5294 19.3025 28.2204 18.5156 27.0625L18.5234 27.0469ZM24.2187 32.8125C23.9097 32.8125 23.6076 32.7209 23.3507 32.5492C23.0937 32.3775 22.8934 32.1334 22.7752 31.8479C22.6569 31.5624 22.626 31.2483 22.6863 30.9452C22.7466 30.6421 22.8954 30.3637 23.1139 30.1451C23.3324 29.9266 23.6108 29.7778 23.9139 29.7175C24.217 29.6572 24.5312 29.6882 24.8167 29.8064C25.1022 29.9247 25.3462 30.125 25.5179 30.3819C25.6896 30.6389 25.7812 30.941 25.7812 31.25C25.7812 31.6644 25.6166 32.0618 25.3236 32.3549C25.0306 32.6479 24.6331 32.8125 24.2187 32.8125ZM39.8437 41.4062C37.781 41.4029 35.7883 40.6578 34.2295 39.3069C32.6707 37.9561 31.6498 36.0896 31.3532 34.0483C31.0565 32.007 31.504 29.9272 32.6139 28.1885C33.7238 26.4498 35.422 25.1684 37.3984 24.5781L39.0625 32.9687C39.099 33.1479 39.1972 33.3085 39.34 33.4227C39.4827 33.5369 39.661 33.5974 39.8437 33.5937H40C40.1036 33.5752 40.2023 33.5359 40.2903 33.4782C40.3784 33.4205 40.4538 33.3457 40.5122 33.2581C40.5705 33.1706 40.6106 33.0721 40.63 32.9687C40.6494 32.8653 40.6477 32.759 40.625 32.6562L38.9297 24.2656C40.0889 24.1441 41.2607 24.2596 42.3739 24.6052C43.4871 24.9508 44.5183 25.5192 45.4049 26.2759C46.2914 27.0326 47.0148 27.9617 47.531 29.0068C48.0472 30.0518 48.3454 31.191 48.4074 32.3549C48.4695 33.5188 48.2941 34.6832 47.892 35.7772C47.4899 36.8712 46.8695 37.872 46.0684 38.7187C45.2674 39.5654 44.3024 40.2403 43.2323 40.7023C42.1622 41.1643 41.0093 41.4038 39.8437 41.4062V41.4062Z" fill="black"/>
</g>
<defs>
<clipPath id="clip0">
<rect width="50" height="50" fill="white"/>
</clipPath>
</defs>
</svg>
