<svg width="50" height="50" viewBox="0 0 50 50" fill="none" xmlns="http://www.w3.org/2000/svg">
<path d="M45.0488 11.9453C44.9131 11.8086 44.7246 11.7305 44.5312 11.7305H36.7188H35.499V6.5918C35.499 6.59053 35.4988 6.58926 35.4988 6.58799C35.4967 2.95498 32.5404 0 28.907 0C27.4457 0 26.0945 0.478613 25.0004 1.28643C23.9062 0.478613 22.5551 0 21.0938 0C17.459 0 14.5019 2.95713 14.5019 6.59189C14.5019 6.59258 14.502 6.59316 14.502 6.59385V11.7306H5.46875C5.27637 11.7306 5.08691 11.8087 4.95117 11.9454C4.81445 12.0812 4.73633 12.2706 4.73633 12.463V36.5723C4.73633 36.9756 5.06445 37.3047 5.46875 37.3047C5.87305 37.3047 6.20117 36.9756 6.20117 36.5723V13.1953H14.502V17.3456C14.502 17.7499 14.8301 18.078 15.2344 18.078C15.6387 18.078 15.9668 17.7499 15.9668 17.3456V13.1953H26.2207V17.3456C26.2207 17.7499 26.5488 18.078 26.9531 18.078C27.3564 18.078 27.6855 17.7499 27.6855 17.3456V13.1953H35.9863V23.877V26.8066V48.5352H6.20117V39.502C6.20117 39.0977 5.87305 38.7695 5.46875 38.7695C5.06445 38.7695 4.73633 39.0977 4.73633 39.502V49.2676C4.73633 49.46 4.81445 49.6494 4.95117 49.7852C5.08691 49.9219 5.27637 50 5.46875 50H36.7188H44.5312C44.7187 50 44.9062 49.9285 45.0491 49.7855C45.1729 49.6617 45.2429 49.5047 45.2595 49.3432C45.2597 49.342 45.2599 49.3407 45.26 49.3396C45.2623 49.3163 45.2635 49.2931 45.2636 49.2697C45.2636 49.269 45.2637 49.2684 45.2637 49.2676V12.4629C45.2637 12.2705 45.1855 12.0811 45.0488 11.9453ZM22.3154 11.7305H15.9668V6.5918C15.9668 6.59141 15.9667 6.59102 15.9667 6.59053C15.9675 3.76406 18.2671 1.46484 21.0938 1.46484C22.1309 1.46484 23.0964 1.77529 23.9041 2.30684C22.9148 3.46006 22.3151 4.95693 22.3151 6.59189C22.3151 6.59385 22.3154 6.5957 22.3154 6.59756V11.7305ZM26.2208 6.5918V11.7305H23.7803V6.5918C23.7803 6.59053 23.7801 6.58936 23.7801 6.58809C23.7811 5.32637 24.2409 4.17061 25.0004 3.27686C25.7604 4.17119 26.2204 5.32783 26.2208 6.59053C26.2208 6.59092 26.2208 6.59141 26.2208 6.5918ZM34.0342 11.7306H27.6855V6.59385C27.6855 6.59316 27.6856 6.59258 27.6856 6.59189C27.6856 4.95693 27.0859 3.46016 26.0967 2.30684C26.9044 1.77529 27.8699 1.46484 28.907 1.46484C31.7341 1.46484 34.0341 3.76484 34.0341 6.59189C34.0341 6.59258 34.0342 6.59316 34.0342 6.59385V11.7306V11.7306ZM37.4512 26.8066V23.877V13.1953H39.8924V45.0576L37.4512 47.499V26.8066ZM38.4865 48.5352L40.6248 46.3968L42.7631 48.5352H38.4865ZM43.7988 47.4993L41.3572 45.0575V13.1953H43.7988V47.4993Z" fill="black"/>
</svg>
