<svg width="50" height="50" viewBox="0 0 50 50" fill="none" xmlns="http://www.w3.org/2000/svg">
<path d="M38.8042 35.428L48.858 24.9968C50.3807 23.4169 50.3807 20.8462 48.8579 19.2662C48.321 18.7091 47.6652 18.3494 46.9745 18.1852C47.2113 17.6569 47.3367 17.0771 47.3367 16.4771C47.3367 15.3947 46.9304 14.3772 46.1929 13.6119C45.6144 13.0116 44.886 12.6239 44.0955 12.4843C44.5406 11.0774 44.226 9.4662 43.1497 8.34962C42.558 7.73575 41.822 7.36162 41.0538 7.22487C41.1825 6.81967 41.2504 6.39179 41.2504 5.95273C41.2504 4.87033 40.8441 3.85277 40.1066 3.08753C39.3689 2.32228 38.3882 1.90074 37.345 1.90074C36.6826 1.90074 36.0457 2.07125 35.4798 2.39141L35.3798 2.27993C34.0803 0.83093 32.2407 0 30.3332 0H22.1951C21.6228 0 21.1587 0.481529 21.1587 1.0753V2.48537C21.1587 3.04968 21.2507 3.59905 21.4267 4.11563C20.9579 3.91362 20.4507 3.80751 19.9278 3.80751C18.8846 3.80751 17.9039 4.22905 17.1662 4.99429C16.0894 6.11152 15.7751 7.72392 16.2212 9.13121C15.4525 9.26763 14.7154 9.64198 14.1232 10.2564C13.3856 11.0217 12.9793 12.0393 12.9793 13.1216C12.9793 13.5598 13.047 13.987 13.1752 14.3914C12.3856 14.5314 11.658 14.9189 11.08 15.5187C9.89079 16.7526 9.63039 18.591 10.2988 20.0895C9.59102 20.2573 8.94092 20.6272 8.41475 21.173C6.89209 22.7528 6.89209 25.3235 8.41475 26.9035L10.4823 29.0486L0.303548 39.6093C-0.101183 40.0293 -0.101183 40.7101 0.303548 41.1301C0.505914 41.34 0.771175 41.4451 1.03633 41.4451C1.30149 41.4451 1.56675 41.3401 1.76912 41.1301L12.0461 30.4673C12.628 30.8117 13.2882 30.996 13.9763 30.996C15.0195 30.996 16.0002 30.5745 16.7378 29.8091C17.5392 28.9777 17.9183 27.8718 17.8761 26.7804C17.9286 26.7826 17.9812 26.7843 18.0337 26.7843C19.0336 26.7842 20.034 26.3892 20.7952 25.5994C21.5328 24.8341 21.939 23.8165 21.939 22.7342C21.939 22.6795 21.9373 22.6251 21.9352 22.5707C21.9871 22.5728 22.039 22.5746 22.0911 22.5746C23.0911 22.5746 24.0913 22.1796 24.8526 21.3897C25.5901 20.6244 25.9964 19.6068 25.9964 18.5245C25.9964 18.4698 25.9946 18.4154 25.9926 18.361C26.0445 18.3631 26.0964 18.3649 26.1484 18.3649C27.1485 18.3649 28.1487 17.9699 28.9099 17.18C30.3407 15.6955 30.4268 13.3365 29.169 11.7463L36.0486 4.60845C36.3948 4.24915 36.8548 4.05144 37.3444 4.05144C37.834 4.05144 38.2942 4.24915 38.6404 4.60845C38.9866 4.96763 39.1771 5.44497 39.1771 5.95294C39.1771 6.46081 38.9866 6.93836 38.6403 7.29744L37.626 8.34984L33.9457 12.1683C33.5409 12.5882 33.5409 13.2691 33.9457 13.6891C34.148 13.899 34.4133 14.0041 34.6784 14.0041C34.9436 14.0041 35.2089 13.8991 35.4112 13.6891L39.0915 9.87065C39.806 9.12927 40.9687 9.12916 41.6833 9.87054C42.3979 10.612 42.3979 11.8183 41.6833 12.5597L40.6689 13.6123L38.003 16.3782C37.5983 16.7981 37.5983 17.479 38.003 17.899C38.2054 18.1089 38.4706 18.214 38.7358 18.214C39.001 18.214 39.2662 18.109 39.4686 17.899L42.1345 15.1331C42.4807 14.7738 42.9408 14.5761 43.4303 14.5761C43.9199 14.5761 44.3801 14.7738 44.7263 15.1331C45.0724 15.4922 45.263 15.9696 45.263 16.4776C45.263 16.9854 45.0724 17.463 44.7262 17.8221L43.3338 19.2666L42.0603 20.588C41.6555 21.008 41.6555 21.6888 42.0603 22.1088C42.2626 22.3187 42.5279 22.4238 42.7931 22.4238C43.0582 22.4238 43.3235 22.3188 43.5258 22.1088L44.8003 20.7865C45.515 20.0463 46.677 20.0464 47.3912 20.7875C48.1059 21.5288 48.1059 22.7352 47.3912 23.4767L37.3374 33.9079C34.8128 36.5273 31.4576 38.0437 27.8897 38.1781C27.6275 38.188 27.3784 38.3007 27.1931 38.4938L17.9056 48.1657C17.5016 48.5864 17.5028 49.2672 17.9083 49.6864C18.1105 49.8954 18.3751 50 18.6398 50C18.9055 50 19.1715 49.8945 19.3739 49.6836L26.2051 42.5698C27.9403 43.7247 29.9809 44.2739 32.0559 44.1316L37.4023 49.6789C37.6047 49.8887 37.87 49.9939 38.1351 49.9939C38.4004 49.9939 38.6655 49.8888 38.8679 49.6789C39.2726 49.2589 39.2726 48.5781 38.8679 48.1581L33.1834 42.2595C32.9682 42.0363 32.6692 41.9223 32.3659 41.9481L32.0373 41.976C30.5207 42.105 29.0215 41.7604 27.7126 40.9993L28.3787 40.3058C32.3178 40.0537 36.0058 38.3316 38.8042 35.428ZM15.2723 28.2885C14.9261 28.6478 14.4658 28.8455 13.9764 28.8455C13.4868 28.8455 13.0267 28.6478 12.6806 28.2885L9.88022 25.3831C9.16567 24.6417 9.16567 23.4354 9.88022 22.6939C10.2264 22.3346 10.6867 22.1369 11.1762 22.1369C11.6657 22.1369 12.1259 22.3346 12.472 22.6939L15.2724 25.5993C15.9868 26.3407 15.9868 27.547 15.2723 28.2885ZM19.3298 24.0786C18.6152 24.82 17.4523 24.82 16.738 24.0786L13.9376 21.1731L12.5452 19.7284C11.8306 18.987 11.8306 17.7807 12.5452 17.0393C12.8913 16.68 13.3516 16.4823 13.841 16.4823C14.3306 16.4823 14.7908 16.68 15.1368 17.0393L19.3295 21.3894C19.3295 21.3894 19.3295 21.3894 19.3296 21.3894C19.6759 21.7487 19.8665 22.2261 19.8665 22.734C19.8665 23.2419 19.6759 23.7194 19.3298 24.0786ZM23.3872 19.8688C22.6726 20.6101 21.5098 20.6102 20.7953 19.8688L15.5882 14.4662C15.242 14.107 15.0515 13.6297 15.0515 13.1217C15.0515 12.6138 15.242 12.1363 15.5883 11.7772C15.9456 11.4065 16.415 11.2212 16.8842 11.2212C17.3531 11.2212 17.822 11.4063 18.1792 11.7763L20.5524 14.2387L23.387 17.1797H23.3871C23.7332 17.5389 23.9237 18.0162 23.9237 18.5242C23.924 19.0322 23.7334 19.5097 23.3872 19.8688ZM27.4447 15.659C26.7301 16.4004 25.5674 16.4004 24.8529 15.659L19.6458 10.2564C19.6453 10.2558 19.6446 10.2553 19.644 10.2547L18.6314 9.20399C17.9168 8.4625 17.9168 7.25626 18.6314 6.51478C18.9886 6.14398 19.458 5.95864 19.9273 5.95864C20.3966 5.95864 20.866 6.14398 21.2232 6.51478L27.4445 12.9697C27.7908 13.3289 27.9813 13.8063 27.9813 14.3142C27.9814 14.8223 27.791 15.2999 27.4447 15.659ZM27.7172 10.2113L24.8706 7.25788C25.1934 7.32937 25.5253 7.36732 25.8631 7.36721C25.8706 7.36721 25.8783 7.36721 25.886 7.36721L28.7301 7.35334C29.3023 7.35055 29.7643 6.86687 29.7616 6.27299C29.7589 5.68084 29.2954 5.20275 28.7253 5.20275C28.7236 5.20275 28.722 5.20275 28.7203 5.20275L25.8762 5.21662C25.8719 5.21662 25.8677 5.21662 25.8634 5.21662C25.1626 5.21662 24.5035 4.93441 24.0065 4.42127C23.5065 3.9048 23.2312 3.2174 23.2312 2.48527V2.15049H30.3329C31.667 2.15049 32.9534 2.73157 33.8623 3.74494L33.9045 3.79192L27.7172 10.2113Z" fill="black"/>
</svg>
