<svg width="50" height="50" viewBox="0 0 50 50" fill="none" xmlns="http://www.w3.org/2000/svg">
<path d="M7.01738 40.8453L11.7188 43.3522V48.9583C11.7188 49.5337 12.1561 50 12.6953 50H23.0469C23.5861 50 24.0234 49.5337 24.0234 48.9583V35.3594C24.0234 32.1681 21.779 29.5214 18.8095 29.2039C18.7979 29.2005 14.6786 28.5144 12.7675 26.4759L10.5743 24.1376C9.83643 23.3504 8.85557 22.9167 7.8125 22.9167V14.5834C7.8125 12.2859 6.06016 10.4167 3.90625 10.4167C1.75234 10.4167 0 12.2859 0 14.5834V28.7334C0 31.2498 0.655664 33.7116 1.896 35.8523C3.13623 37.9931 4.90723 39.7196 7.01738 40.8453V40.8453ZM1.95312 14.5834C1.95312 13.4347 2.8293 12.5001 3.90625 12.5001C4.9832 12.5001 5.85938 13.4347 5.85938 14.5834V23.4752C4.66836 24.2097 3.90625 25.5793 3.90625 27.0834C3.90625 28.1959 4.3127 29.242 5.05068 30.0292L10.0517 35.3646C10.4328 35.7714 11.0513 35.7716 11.4327 35.3647C11.8141 34.958 11.8142 34.2985 11.4328 33.8916L6.43184 28.5561C6.0627 28.1624 5.85938 27.6394 5.85938 27.0834C5.85938 26.2017 6.38252 25.4121 7.16133 25.1187C7.16162 25.1186 7.16191 25.1184 7.16221 25.1183H7.1623C7.83574 24.8637 8.63467 25.0147 9.19346 25.6108L11.3866 27.9492C13.6509 30.3643 18.5979 31.2732 18.6077 31.2761C20.5817 31.4871 22.0703 33.2426 22.0703 35.3594V47.9167H13.6719V42.7084C13.6719 42.3138 13.4628 41.953 13.132 41.7767L7.89092 38.9819C4.22842 37.0282 1.95312 33.1012 1.95312 28.7334V14.5834Z" fill="black"/>
<path d="M24.0234 23.9584C24.0234 24.5337 24.4607 25.0001 25 25.0001C25.5393 25.0001 25.9766 24.5337 25.9766 23.9584V20.8334H29.7148C35.1923 20.8334 39.6484 16.0802 39.6484 10.2376V5.20842C39.6484 4.78717 39.4104 4.40728 39.0456 4.24603C38.6807 4.08478 38.2606 4.17395 37.9813 4.47186C36.9063 5.61863 35.4771 6.25009 33.957 6.25009C30.6909 6.25009 27.7882 7.9404 25.9766 10.5437V1.04176C25.9766 0.466453 25.5393 0.000100044 25 0.000100044C24.4607 0.000100044 24.0234 0.466453 24.0234 1.04176V6.37717C22.2118 3.77384 19.3091 2.08343 16.043 2.08343C14.5229 2.08343 13.0937 1.45197 12.0187 0.305204C11.7395 0.00728762 11.3193 -0.0819832 10.9544 0.0793707C10.5896 0.240725 10.3516 0.620516 10.3516 1.04176V6.07092C10.3516 11.9135 14.8077 16.6667 20.2852 16.6667H24.0234V23.9584ZM33.957 8.33342C35.2876 8.33342 36.5664 7.97321 37.6953 7.29602V10.2376C37.6953 14.9314 34.1153 18.7501 29.7148 18.7501H27.9297L33.3984 14.3751C33.8299 14.03 33.9173 13.3769 33.5938 12.9167C33.2702 12.4565 32.6581 12.3631 32.2266 12.7084L25.9766 17.7084V16.8459C25.9766 12.1522 29.5565 8.33342 33.957 8.33342ZM12.3047 6.07092V3.12937C13.4337 3.80655 14.7124 4.16676 16.043 4.16676C20.4435 4.16676 24.0234 7.9855 24.0234 12.6792V13.5417L17.7734 8.54175C17.342 8.19665 16.7299 8.28988 16.4062 8.75008C16.0827 9.21029 16.1701 9.86331 16.6016 10.2084L22.0703 14.5834H20.2852C15.8847 14.5834 12.3047 10.7648 12.3047 6.07092Z" fill="black"/>
<path d="M44.8242 39.375C45.3636 39.375 45.8008 38.9086 45.8008 38.3334C45.8008 37.7581 45.3636 37.2917 44.8242 37.2917C44.2849 37.2917 43.8477 37.7581 43.8477 38.3334C43.8477 38.9086 44.2849 39.375 44.8242 39.375Z" fill="black"/>
<path d="M46.0938 10.4167C43.9398 10.4167 42.1875 12.2859 42.1875 14.5834V22.9167C41.1444 22.9167 40.1636 23.3503 39.4259 24.1372L37.2323 26.476C35.3635 28.4696 31.2074 29.2002 31.1976 29.2032C28.221 29.5215 25.9766 32.1681 25.9766 35.3595V48.9583C25.9766 49.5337 26.4139 50 26.9531 50H37.3047C37.8439 50 38.2812 49.5337 38.2812 48.9583V43.3522L41.4775 41.6478C41.9599 41.3905 42.1555 40.7649 41.9144 40.2502C41.6732 39.7358 41.0869 39.5271 40.6042 39.7843L36.868 41.7765C36.5372 41.9531 36.3281 42.3138 36.3281 42.7084V47.9167H27.9297V35.3594C27.9297 33.2426 29.4183 31.4871 31.3993 31.2753C31.4092 31.2723 36.2261 30.4956 38.6132 27.9492L40.8067 25.6105C41.3657 25.0142 42.1654 24.864 42.8377 25.1182H42.8378C42.8381 25.1183 42.8384 25.1185 42.8387 25.1186C43.6175 25.4122 44.1406 26.2018 44.1406 27.0834C44.1406 27.6394 43.9373 28.1624 43.5683 28.5563L38.5673 33.8917C38.1859 34.2986 38.186 34.9581 38.5674 35.3648C38.9486 35.7715 39.5671 35.7716 39.9484 35.3647L44.9494 30.0293C45.6873 29.2421 46.0938 28.1959 46.0938 27.0834C46.0938 25.5793 45.3316 24.2097 44.1406 23.4752V14.5834C44.1406 13.4347 45.0168 12.5001 46.0938 12.5001C47.1707 12.5001 48.0469 13.4347 48.0469 14.5834V28.7334C48.0469 30.6392 47.596 32.5313 46.7429 34.205C46.4852 34.7105 46.6604 35.343 47.1344 35.6177C47.6081 35.8924 48.2013 35.7056 48.4588 35.2001C49.4671 33.222 50 30.9859 50 28.7334V14.5834C50 12.2859 48.2477 10.4167 46.0938 10.4167V10.4167Z" fill="black"/>
</svg>
