<svg width="50" height="50" viewBox="0 0 50 50" fill="none" xmlns="http://www.w3.org/2000/svg">
<g clip-path="url(#clip0)">
<path d="M24.5836 21.6827C24.1236 21.6827 23.7507 22.0556 23.7507 22.5156V35.8414C23.7507 36.3013 24.1236 36.6742 24.5836 36.6742C25.0435 36.6742 25.4165 36.3013 25.4165 35.8414V22.5156C25.4165 22.0555 25.0435 21.6827 24.5836 21.6827Z" fill="black"/>
<path d="M21.2379 35.6881L18.7393 22.3623C18.674 21.9071 18.2519 21.5909 17.7967 21.6563C17.3414 21.7216 17.0252 22.1437 17.0906 22.599C17.0939 22.6224 17.0983 22.6457 17.1037 22.6688L19.6023 35.9946C19.6759 36.388 20.019 36.6735 20.4193 36.6742C20.8793 36.6742 21.2522 36.3014 21.2523 35.8415C21.2522 35.7899 21.2474 35.7386 21.2379 35.6881Z" fill="black"/>
<path d="M31.4411 21.6684C30.993 21.5645 30.5456 21.8435 30.4416 22.2916C30.4363 22.3147 30.4319 22.338 30.4285 22.3615L27.9299 35.6873C27.8446 36.1392 28.1417 36.5747 28.5937 36.66C29.0458 36.7446 29.4809 36.4466 29.5655 35.9945C29.5655 35.9942 29.5656 35.994 29.5656 35.9938L32.0642 22.668C32.1682 22.2199 31.8892 21.7723 31.4411 21.6684Z" fill="black"/>
<path d="M40.408 18.3513H40.0316C41.6555 9.99812 36.2004 1.9101 27.8472 0.286124C19.494 -1.33785 11.406 4.11729 9.78203 12.4705C9.40443 14.4126 9.40443 16.4092 9.78203 18.3513H9.59214C9.13219 18.3513 8.75928 18.7242 8.75928 19.1842C8.75928 19.6441 9.13219 20.017 9.59214 20.017H10.2001C10.3982 20.6471 10.6358 21.2641 10.9114 21.8643L17.0879 40.1423V45.0029C17.0879 46.3828 18.2065 47.5015 19.5865 47.5015H21.3705C21.8222 49.2761 23.6269 50.3485 25.4014 49.8969C26.5782 49.5974 27.4972 48.6784 27.7968 47.5015H29.5808C30.9608 47.5015 32.0794 46.3828 32.0794 45.0029V40.1556L38.6374 22.4065C39.0255 21.6381 39.3494 20.8389 39.606 20.017H40.408C40.868 20.017 41.2409 19.6441 41.2409 19.1842C41.2409 18.7242 40.868 18.3513 40.408 18.3513ZM24.5836 48.3343C23.9889 48.334 23.4394 48.0166 23.142 47.5015H26.0253C25.7279 48.0165 25.1784 48.334 24.5836 48.3343ZM30.4137 45.0029C30.4137 45.4628 30.0408 45.8357 29.5808 45.8357H19.5865C19.1265 45.8357 18.7536 45.4628 18.7536 45.0029V44.17H30.4137V45.0029ZM30.4137 42.5043H18.7536V40.8386H30.4137V42.5043ZM37.1315 21.6919C37.1165 21.7217 37.1032 21.7523 37.0916 21.7835L30.6635 39.1728H18.5187L12.4755 21.2888C12.4655 21.2605 12.4547 21.233 12.4422 21.2055C12.2606 20.8149 12.109 20.4176 11.9633 20.017H37.8553C37.651 20.5906 37.4093 21.15 37.1315 21.6919ZM38.3359 18.3513H11.4852C10.7047 14.8046 11.3682 11.093 13.3292 8.03632V8.03299C17.4184 1.63921 25.9165 -0.229001 32.3103 3.86014C37.1508 6.95589 39.5542 12.7363 38.3359 18.3513Z" fill="black"/>
<path d="M20.7057 5.18373C19.8402 5.56633 19.0246 6.05334 18.2771 6.63374L19.2965 7.9505C19.9379 7.45359 20.637 7.03602 21.3787 6.70703L20.7057 5.18373Z" fill="black"/>
<path d="M16.6072 8.21368C14.7686 10.3339 13.7563 13.0463 13.7563 15.8527H15.4221C15.4215 13.4474 16.2889 11.1227 17.8649 9.30557L16.6072 8.21368Z" fill="black"/>
</g>
<defs>
<clipPath id="clip0">
<rect width="50" height="50" fill="white"/>
</clipPath>
</defs>
</svg>
