<svg width="50" height="50" viewBox="0 0 50 50" fill="none" xmlns="http://www.w3.org/2000/svg">
<g clip-path="url(#clip0)">
<path d="M29.358 15.4088C29.2287 15.6175 29.1595 15.8633 29.1669 16.1206C29.1815 16.6398 29.5041 17.0955 29.9889 17.2817L36.1044 19.6301C36.2537 19.6875 36.4092 19.7161 36.5645 19.7161C36.7416 19.7161 36.9185 19.6789 37.0852 19.6046C37.3981 19.4654 37.638 19.2127 37.7607 18.893L40.1183 12.7538C40.3032 12.2722 40.1828 11.7298 39.8116 11.3718C39.6238 11.1907 39.3913 11.0754 39.1459 11.0317L36.1707 5.10827C35.4566 3.68681 34.0249 2.80377 32.4343 2.80377H18.5713C17.0366 2.80377 15.6284 3.64179 14.8963 4.9907L10.2707 13.5141C9.78534 14.4084 10.1102 15.5451 10.9949 16.048L18.2377 20.1648C18.5304 20.3312 18.8494 20.4102 19.1644 20.4102C19.8195 20.4102 20.457 20.0683 20.8035 19.4592L23.0029 15.5933C23.2029 15.2418 23.0801 14.7947 22.7284 14.5946C22.3769 14.3946 21.9298 14.5174 21.7297 14.8691L19.5303 18.735C19.4166 18.9349 19.1613 19.0052 18.9613 18.8914L11.7186 14.7746C11.5225 14.6631 11.4504 14.4111 11.558 14.2128L16.1836 5.68928C16.6593 4.81288 17.5742 4.2685 18.5712 4.2685H22.7916L25.3202 8.55838L23.4641 11.8208C23.2641 12.1723 23.387 12.6195 23.7386 12.8196C23.8528 12.8846 23.9772 12.9154 24.1001 12.9154C24.3548 12.9154 24.6024 12.7823 24.7373 12.5451L26.1777 10.0132L29.358 15.4088ZM32.4343 4.2685C33.4677 4.2685 34.3979 4.84218 34.8618 5.76574L38.0521 12.1173C38.1693 12.3508 38.3957 12.4956 38.6399 12.518L36.4589 18.1974L30.8392 16.0393C30.9069 15.9632 30.9589 15.8731 30.9903 15.7739C31.0534 15.5754 31.029 15.3595 30.9233 15.1801L24.4918 4.2685H32.4343Z" fill="black"/>
<path d="M21.7644 34.8596H17.2966C16.8922 34.8596 16.5642 35.1875 16.5642 35.592C16.5642 35.9965 16.8922 36.3244 17.2966 36.3244H21.7644C21.9945 36.3244 22.1817 36.5116 22.1817 36.7416V45.1889C22.1817 45.4189 21.9945 45.6061 21.7644 45.6061H10.7291C9.73366 45.6061 8.81957 45.0631 8.34344 44.189L6.41186 40.6428L8.9971 36.3244H13.7884C14.1929 36.3244 14.5208 35.9965 14.5208 35.592C14.5208 35.1875 14.1929 34.8596 13.7884 34.8596H9.87398L13.0738 29.5148C13.3025 29.5169 13.5384 29.4585 13.7483 29.3364C14.2069 29.0695 14.4582 28.5572 14.3883 28.0314L13.5379 21.6314C13.4427 20.9155 12.783 20.4101 12.067 20.5055L5.64239 21.3592C5.14321 21.4255 4.73377 21.7628 4.57392 22.2395C4.4877 22.4965 4.48282 22.7643 4.55205 23.0117L0.749627 28.492C-0.157134 29.799 -0.247752 31.4787 0.513123 32.8755L7.05722 44.8898C7.79007 46.2352 9.19708 47.0709 10.7292 47.0709H21.7645C22.8022 47.0709 23.6465 46.2267 23.6465 45.189V36.7417C23.6464 35.7039 22.8021 34.8596 21.7644 34.8596V34.8596ZM1.79944 32.1749C1.30515 31.2674 1.36403 30.176 1.95304 29.3269L6.00769 23.4828C6.15475 23.2708 6.17594 23.0045 6.07995 22.7786L12.1063 21.9779L12.8992 27.9455C12.8 27.9223 12.6959 27.9199 12.5937 27.9396C12.3892 27.9791 12.2113 28.1038 12.1044 28.2824L5.59855 39.1497L1.79944 32.1749Z" fill="black"/>
<path d="M49.2594 28.0537L43.7131 20.0172C43.1601 19.2161 42.0665 18.9695 41.2235 19.4561L33.9956 23.6271C33.548 23.8853 33.2232 24.322 33.1045 24.825C32.9859 25.328 33.0813 25.8637 33.3662 26.2948L39.4799 35.5445H32.9445C32.7965 35.3932 32.6088 35.2796 32.3971 35.2204C31.9681 35.1002 31.5234 35.2169 31.2074 35.533L26.4276 40.3129C26.197 40.5435 26.0701 40.85 26.0701 41.176C26.0701 41.5021 26.197 41.8086 26.4276 42.0391L31.2259 46.8374C31.4599 47.0713 31.7652 47.1963 32.0824 47.1963C32.1896 47.1963 32.2981 47.1821 32.4057 47.1529C32.6173 47.0956 32.8057 46.9837 32.955 46.8339H39.6167C41.2003 46.8339 42.6292 45.9566 43.3456 44.5444L49.5472 32.3206C50.2413 30.9517 50.1311 29.3167 49.2594 28.0537V28.0537ZM48.2407 31.6577L44.083 39.8527L44.0256 39.7659C43.8026 39.4284 43.3481 39.3356 43.0109 39.5587C42.6734 39.7817 42.5806 40.2361 42.8037 40.5734L43.3205 41.3555L42.039 43.8815C41.5735 44.799 40.6452 45.3689 39.6163 45.3689H32.5601C32.3608 45.3689 32.1766 45.4494 32.0427 45.5829L27.6356 41.1758L32.0212 36.7902C32.1555 36.9267 32.3416 37.0092 32.5436 37.0092H40.4478L40.8713 37.65C41.0943 37.9875 41.5487 38.0802 41.8861 37.8572C42.2235 37.6342 42.3163 37.1799 42.0933 36.8425L34.588 25.4872C34.5015 25.3563 34.5146 25.2267 34.53 25.1613C34.5454 25.0958 34.5916 24.9741 34.7276 24.8957L41.9555 20.7248C42.1426 20.6169 42.3848 20.6715 42.5075 20.8492L48.0538 28.8856C48.6203 29.7062 48.6918 30.7685 48.2407 31.6577V31.6577Z" fill="black"/>
</g>
<defs>
<clipPath id="clip0">
<rect width="50" height="50" fill="white"/>
</clipPath>
</defs>
</svg>
