<svg width="50" height="50" viewBox="0 0 50 50" fill="none" xmlns="http://www.w3.org/2000/svg">
<g clip-path="url(#clip0)">
<path d="M50 35.8819C50 34.3271 48.901 33.0248 47.4395 32.7101V32.5916C47.4395 31.0911 47.1365 29.6332 46.5392 28.2585C46.3241 27.7638 45.7489 27.537 45.2543 27.752C44.7597 27.967 44.5328 28.5423 44.7478 29.0369C45.2379 30.1646 45.4862 31.3605 45.4862 32.5916V32.637H41.3162V32.5916C41.3162 29.941 39.1607 27.7847 36.5112 27.7847H35.2269C34.83 27.7847 34.4725 28.0249 34.3226 28.3925C34.1716 28.7627 33.9944 29.1257 33.7973 29.469C32.2193 32.1995 29.2803 33.8974 26.1287 33.9C22.9749 33.8975 20.0371 32.1998 18.4602 29.4668C18.2633 29.1281 18.086 28.7667 17.9332 28.3923C17.7833 28.0248 17.426 27.7847 17.029 27.7847H10.6672V23.6142H16.5972C17.0448 23.6142 17.4352 23.3098 17.5442 22.8756C18.112 20.6158 19.5065 18.7157 21.4834 17.4988H30.7752C32.7491 18.7143 34.1438 20.6147 34.7145 22.8766C34.8239 23.3103 35.2141 23.6142 35.6613 23.6142H36.5111C37.3976 23.6142 38.2675 23.7424 39.097 23.9954C39.6123 24.1526 40.1585 23.8622 40.3159 23.3463C40.4731 22.8304 40.1826 22.2847 39.6667 22.1273C38.6525 21.818 37.5908 21.6611 36.5112 21.6611H36.3949C35.6254 19.309 34.0994 17.3259 32.0208 15.9773V12.9189C32.0208 11.985 31.2611 11.225 30.3272 11.225H27.1045V7.99629C27.9145 7.78555 28.6224 7.31905 29.1368 6.68858C30.7096 7.24951 33.605 8.14063 36.1222 8.14053C36.8606 8.14053 37.5667 8.06377 38.1969 7.8795C39.8636 7.39268 40.9405 5.96475 40.9405 4.2417C40.9405 2.51866 39.8636 1.09082 38.1966 0.60391C35.4175 -0.206343 31.1765 1.06719 29.1428 1.79141C28.4302 0.913676 27.3437 0.351567 26.128 0.351567C24.9125 0.351567 23.8261 0.913676 23.1135 1.79121C21.081 1.0667 16.843 -0.206929 14.062 0.604008C12.394 1.09073 11.3162 2.51866 11.3162 4.2418C11.3162 5.96494 12.394 7.39287 14.0612 7.8795C14.6913 8.06397 15.3968 8.14073 16.1353 8.14063C18.6512 8.14053 21.5465 7.24951 23.1191 6.68868C23.6336 7.31914 24.3413 7.78575 25.1514 7.99639V11.2251H21.9313C20.9976 11.2251 20.2379 11.985 20.2379 12.919V15.9772C18.1567 17.3271 16.6305 19.3104 15.863 21.6611H10.6672V21.1061C10.6672 19.8696 9.66162 18.8638 8.42559 18.8638H6.31016V18.3752C6.31016 17.8358 5.87285 17.3986 5.33359 17.3986C4.79434 17.3986 4.35703 17.8358 4.35703 18.3752V18.8638H2.2416C1.00557 18.8637 0 19.8696 0 21.106V30.2928C0 31.5292 1.00557 32.5351 2.2416 32.5351H4.35703V33.0236C4.35703 33.563 4.79434 34.0002 5.33359 34.0002C5.87285 34.0002 6.31016 33.563 6.31016 33.0236V32.5351H8.42568C9.66172 32.5351 10.6673 31.5292 10.6673 30.2928V29.7377H16.3948C16.512 29.981 16.6375 30.2179 16.7701 30.4457C18.6928 33.778 22.2782 35.8499 26.1287 35.8531C29.9765 35.85 33.5629 33.7782 35.4897 30.4439C35.6217 30.2141 35.7458 29.978 35.8613 29.7378H36.5112C38.0571 29.7378 39.3631 31.0446 39.3631 32.5916V32.7101C37.9016 33.0248 36.8025 34.327 36.8025 35.8819C36.8025 37.6712 38.2576 39.1269 40.0462 39.1269H41.5289C40.6456 40.3736 39.6605 41.7703 39.1543 42.7856C38.8272 43.4363 38.6544 44.1703 38.6544 44.9081C38.6544 47.5266 40.7839 49.6568 43.4012 49.6568C46.0185 49.6568 48.1479 47.5266 48.1479 44.9081C48.1479 44.1775 47.9757 43.4449 47.6487 42.7869C47.1395 41.7697 46.1553 40.3733 45.2729 39.1269H46.7562C48.5449 39.1268 50 37.6711 50 35.8819V35.8819ZM29.9537 3.57471C32.5983 2.64209 35.7883 1.93594 37.6493 2.47881C38.6359 2.767 38.9874 3.57842 38.9874 4.2417C38.9874 4.90498 38.6358 5.7166 37.649 6.00479C35.7901 6.54844 32.5988 5.84112 29.9521 4.90684C29.9901 4.68877 30.0111 4.46495 30.0111 4.23623C30.0111 4.01065 29.9907 3.78985 29.9537 3.57471ZM14.6093 6.00469C13.6214 5.71641 13.2693 4.90498 13.2693 4.2417C13.2693 3.57852 13.6213 2.76709 14.6091 2.47891C16.4712 1.93584 19.6598 2.6417 22.3025 3.57442C22.2654 3.78965 22.245 4.01055 22.245 4.23623C22.245 4.46504 22.266 4.68887 22.3041 4.90684C19.6574 5.84121 16.4671 6.54854 14.6093 6.00469ZM24.198 4.23623C24.198 3.1712 25.0638 2.30469 26.128 2.30469C27.1923 2.30469 28.0581 3.1712 28.0581 4.23623C28.0581 5.30127 27.1923 6.16778 26.128 6.16778C25.0638 6.16778 24.198 5.30127 24.198 4.23623V4.23623ZM22.1911 13.1782H30.0677V15.5457H22.1911V13.1782ZM4.35703 30.5819H2.2416C2.08516 30.5819 1.95312 30.4495 1.95312 30.2928V21.106C1.95312 20.9492 2.08525 20.8168 2.2416 20.8168H4.35703V30.5819ZM8.71416 22.6376V28.7612V30.2929C8.71416 30.4496 8.58203 30.582 8.42568 30.582H6.31016V20.8169H8.42568C8.58213 20.8169 8.71416 20.9493 8.71416 21.1061V22.6376ZM46.1949 44.9081C46.1949 46.4496 44.9417 47.7037 43.4014 47.7037C41.8609 47.7037 40.6077 46.4496 40.6077 44.9081C40.6077 44.467 40.706 44.048 40.901 43.66C41.3525 42.7544 42.3238 41.3835 43.1808 40.174C43.2553 40.0689 43.3288 39.9651 43.4013 39.8627C43.4734 39.9647 43.5467 40.0683 43.6208 40.1729C44.4775 41.383 45.4486 42.7546 45.9014 43.6587C46.0934 44.0454 46.1949 44.4774 46.1949 44.9081V44.9081ZM38.7558 35.8819C38.7558 35.1697 39.3347 34.5901 40.0463 34.5901H46.7563C47.468 34.5901 48.0469 35.1696 48.0469 35.8819C48.0469 36.5942 47.468 37.1737 46.7563 37.1737H40.0463C39.3347 37.1736 38.7558 36.5941 38.7558 35.8819Z" fill="black"/>
<path d="M42.4422 25.8623C42.6325 26.0526 42.8815 26.1477 43.1307 26.1477C43.3807 26.1477 43.6308 26.052 43.8218 25.8609C44.2032 25.4796 44.2019 24.8599 43.8205 24.4784C43.439 24.0971 42.8209 24.0971 42.4393 24.4784C42.058 24.8598 42.058 25.4781 42.4393 25.8596L42.4422 25.8623Z" fill="black"/>
</g>
<defs>
<clipPath id="clip0">
<rect width="50" height="50" fill="white"/>
</clipPath>
</defs>
</svg>
