<svg width="50" height="50" viewBox="0 0 50 50" fill="none" xmlns="http://www.w3.org/2000/svg">
<g clip-path="url(#clip0)">
<path d="M37.0715 16.9197C37.0715 12.3014 33.5112 8.4996 28.9912 8.11336V6.3664H30.6562C31.0755 6.3664 31.4153 6.02652 31.4153 5.60729C31.4153 5.18806 31.0755 4.84818 30.6562 4.84818H30.6072V2.37854C30.6072 1.067 29.5402 0 28.2287 0H21.7712C20.4596 0 19.3926 1.067 19.3926 2.37854V4.84818H19.3437C18.9244 4.84818 18.5846 5.18806 18.5846 5.60729C18.5846 6.02652 18.9244 6.3664 19.3437 6.3664H21.0087V8.11326C16.4888 8.4996 12.9285 12.3013 12.9285 16.9196V17.7276C12.9285 18.0237 13.0125 18.2998 13.1558 18.5362C13.0126 18.7729 12.9285 19.0492 12.9285 19.3453V29.0385C12.9285 29.4527 13.091 29.8289 13.3543 30.1096C13.0863 30.4941 12.9285 30.961 12.9285 31.4643V33.0804C12.9285 33.704 13.1701 34.2722 13.5645 34.6964C13.1701 35.1205 12.9285 35.6889 12.9285 36.3125V37.9285C12.9285 38.5521 13.1701 39.1203 13.5645 39.5446C13.1701 39.9688 12.9285 40.5371 12.9285 41.1606V42.7767C12.9285 43.4003 13.1701 43.9685 13.5645 44.3928C13.1701 44.817 12.9285 45.3853 12.9285 46.0088C12.9285 48.2096 14.7189 50.0001 16.9198 50.0001H33.0803C35.2811 50.0001 37.0716 48.2096 37.0716 46.0088C37.0716 45.3852 36.83 44.817 36.4355 44.3928C36.8301 43.9686 37.0716 43.4003 37.0716 42.7767V41.1606C37.0716 40.537 36.83 39.9688 36.4355 39.5446C36.8301 39.1204 37.0716 38.5521 37.0716 37.9285V36.3125C37.0716 35.6889 36.83 35.1206 36.4355 34.6964C36.8301 34.2722 37.0716 33.704 37.0716 33.0804V31.4643C37.0716 30.961 36.9138 30.4942 36.6458 30.1096C36.909 29.8289 37.0716 29.4527 37.0716 29.0385V19.3454C37.0716 19.0492 36.9876 18.773 36.8443 18.5363C36.9875 18.2999 37.0716 18.0238 37.0716 17.7277V16.9197H37.0715ZM20.9109 2.37854C20.9109 1.90415 21.2969 1.51822 21.7712 1.51822H28.2287C28.7031 1.51822 29.089 1.90415 29.089 2.37854V4.84818H20.9109V2.37854ZM27.473 6.3664V8.08036H22.5269V6.3664H27.473ZM35.5533 33.0804C35.5533 33.5528 35.1688 33.9372 34.6963 33.9372C34.2769 33.9372 33.9372 34.2771 33.9372 34.6964C33.9372 35.1156 34.2769 35.4555 34.6963 35.4555C35.1688 35.4555 35.5533 35.8399 35.5533 36.3125V37.9285C35.5533 38.401 35.1688 38.7855 34.6963 38.7855H18.5358C18.1164 38.7855 17.7766 39.1254 17.7766 39.5446C17.7766 39.9639 18.1164 40.3037 18.5358 40.3037H34.6963C35.1688 40.3037 35.5533 40.6882 35.5533 41.1606V42.7767C35.5533 43.2493 35.1688 43.6337 34.6963 43.6337C34.2769 43.6337 33.9372 43.9736 33.9372 44.3928C33.9372 44.812 34.2769 45.1519 34.6963 45.1519C35.1688 45.1519 35.5533 45.5363 35.5533 46.0088C35.5533 47.3725 34.4438 48.4819 33.0802 48.4819H16.9197C15.556 48.4819 14.4466 47.3725 14.4466 46.0088C14.4466 45.5363 14.831 45.1519 15.3036 45.1519H31.4641C31.8834 45.1519 32.2232 44.812 32.2232 44.3928C32.2232 43.9736 31.8834 43.6337 31.4641 43.6337H15.3036C14.831 43.6337 14.4466 43.2493 14.4466 42.7767V41.1606C14.4466 40.6881 14.831 40.3037 15.3036 40.3037C15.7229 40.3037 16.0627 39.9639 16.0627 39.5446C16.0627 39.1254 15.7229 38.7855 15.3036 38.7855C14.831 38.7855 14.4466 38.4011 14.4466 37.9285V36.3125C14.4466 35.8399 14.831 35.4555 15.3036 35.4555H31.4641C31.8834 35.4555 32.2232 35.1156 32.2232 34.6964C32.2232 34.2771 31.8834 33.9372 31.4641 33.9372H15.3036C14.831 33.9372 14.4466 33.5528 14.4466 33.0804V31.4643C14.4466 30.9917 14.831 30.6073 15.3036 30.6073H19.9676C20.387 30.6073 20.7267 30.2674 20.7267 29.8482C20.7267 29.4289 20.387 29.0891 19.9676 29.0891H14.4972C14.4694 29.0891 14.4466 29.0664 14.4466 29.0385V27.3752H16.9197C17.339 27.3752 17.6788 27.0353 17.6788 26.6161C17.6788 26.1969 17.339 25.857 16.9197 25.857H14.4466V19.3455C14.4466 19.3176 14.4694 19.2949 14.4972 19.2949H29.946C30.3653 19.2949 30.7051 18.9551 30.7051 18.5358C30.7051 18.1166 30.3653 17.7767 29.946 17.7767H14.4972C14.4969 17.7767 14.4967 17.7767 14.4964 17.7767C14.4961 17.7767 14.4959 17.7767 14.4956 17.7767C14.4685 17.7767 14.4467 17.7548 14.4467 17.7278V16.9198C14.4467 12.8829 17.7309 9.59868 21.7678 9.59868H28.2321C32.269 9.59868 35.5533 12.8829 35.5533 16.9198V17.7278C35.5533 17.7549 35.5313 17.7767 35.5044 17.7767C35.5041 17.7767 35.5039 17.7767 35.5036 17.7767C35.5033 17.7767 35.5031 17.7767 35.5028 17.7767H32.9826C32.5633 17.7767 32.2235 18.1166 32.2235 18.5358C32.2235 18.9551 32.5633 19.2949 32.9826 19.2949H35.5028C35.5306 19.2949 35.5534 19.3176 35.5534 19.3455V25.857H33.0803C32.661 25.857 32.3212 26.1969 32.3212 26.6161C32.3212 27.0353 32.661 27.3752 33.0803 27.3752H35.5534V29.0385C35.5534 29.0664 35.5306 29.0891 35.5028 29.0891H23.0041C22.5847 29.0891 22.245 29.4289 22.245 29.8482C22.245 30.2674 22.5847 30.6073 23.0041 30.6073H34.6963C35.1688 30.6073 35.5533 30.9917 35.5533 31.4643V33.0804Z" fill="black"/>
<path d="M27.4224 25.7591C28.2875 25.7591 28.9913 25.0554 28.9913 24.1903V22.5776C28.9913 21.7126 28.2875 21.0088 27.4224 21.0088H22.5776C21.7125 21.0088 21.0088 21.7126 21.0088 22.5776V24.1903C21.0088 25.0554 21.7125 25.7591 22.5776 25.7591H27.4224ZM22.5269 24.1903V22.5776C22.5269 22.5497 22.5497 22.527 22.5775 22.527H27.4223C27.4502 22.527 27.473 22.5497 27.473 22.5776V24.1903C27.473 24.2182 27.4502 24.2409 27.4223 24.2409H22.5775C22.5497 24.2409 22.5269 24.2182 22.5269 24.1903V24.1903Z" fill="black"/>
</g>
<defs>
<clipPath id="clip0">
<rect width="50" height="50" fill="white"/>
</clipPath>
</defs>
</svg>
