<svg width="62" height="67" viewBox="0 0 62 67" fill="none" xmlns="http://www.w3.org/2000/svg">
<path d="M58.8484 5.42785C59.5429 5.42785 60.1081 4.86915 60.1081 4.18252C60.1081 3.47646 59.5546 2.92346 58.8484 2.92346C58.1462 2.92346 57.5961 3.47646 57.5961 4.18252C57.596 4.86899 58.1578 5.42785 58.8484 5.42785Z" fill="#2C441F"/>
<path d="M23.3809 17.8273C24.0714 17.8273 24.6331 17.2624 24.6331 16.5682C24.6331 15.8815 24.0714 15.3228 23.3809 15.3228C22.6865 15.3228 22.1213 15.8815 22.1213 16.5682C22.1213 17.2626 22.6863 17.8273 23.3809 17.8273Z" fill="#2C441F"/>
<path d="M9.23053 56.044C9.19643 56.044 9.16202 56.0457 9.12762 56.0493C8.59637 56.1122 8.20616 56.604 8.26556 57.1445C8.32404 57.6674 8.82165 58.0668 9.34934 58.004C9.61365 57.9724 9.84988 57.8396 10.0145 57.6299C10.1739 57.4271 10.2449 57.1773 10.2145 56.9271C10.1589 56.4214 9.73616 56.044 9.23053 56.044Z" fill="#2C441F"/>
<path d="M9.02424 46.0598C9.00032 46.0275 8.97656 45.9958 8.95295 45.9644C8.8434 45.8185 8.73647 45.6791 8.63309 45.5488C8.5581 45.4542 8.48497 45.3636 8.41368 45.2778C8.34255 45.1917 8.27312 45.1106 8.206 45.0342C8.07161 44.8817 7.94601 44.7484 7.83013 44.6378C7.26124 44.0906 6.74172 43.8251 6.24087 43.8251C5.84726 43.8251 5.49207 43.9877 5.16219 44.1542C4.95095 44.2593 4.68572 44.3849 4.38484 44.5275C3.11467 45.1291 0.471715 46.3807 0.122541 47.1166C-0.162445 47.7216 0.0992419 48.6473 0.402281 49.7189C0.484984 50.0118 0.570619 50.3147 0.649156 50.6264C1.24752 53.0192 1.25724 55.808 1.26665 58.5052C1.27668 61.3812 1.28609 64.0974 1.9795 66.1426C2.08813 66.4583 2.17237 66.5123 2.17315 66.5128L2.17392 66.5103C2.34226 66.5103 2.74127 66.2758 3.12701 66.0493C3.90389 65.5959 5.48173 64.8661 7.30892 64.0212C9.127 63.1803 11.1878 62.2272 12.8343 61.3705C15.3268 60.0741 15.6888 59.6047 15.7402 59.4916C15.9988 58.9121 15.8614 58.0175 15.3183 56.761C14.3026 54.3714 11.144 48.9095 9.02424 46.0598ZM10.8105 58.2553C10.4786 58.6777 10.0025 58.9457 9.46954 59.0092C9.39223 59.0184 9.31339 59.0232 9.23547 59.0232C8.22174 59.0232 7.37233 58.2636 7.25954 57.2563C7.1395 56.1648 7.92765 55.1726 9.01637 55.0436C9.09259 55.0357 9.16187 55.0321 9.23038 55.0321C10.2529 55.0321 11.1082 55.7968 11.2199 56.8112C11.2822 57.3247 11.137 57.8394 10.8105 58.2553Z" fill="#2C441F"/>
<path d="M46.1078 8.58355C46.5147 8.58355 46.846 8.24934 46.846 7.83861C46.846 7.43466 46.508 7.09351 46.1078 7.09351C45.6974 7.09351 45.3635 7.42787 45.3635 7.83861C45.3635 8.25629 45.6904 8.58355 46.1078 8.58355Z" fill="#2C441F"/>
<path d="M57.2352 40.911C56.8168 40.911 56.3803 40.9433 55.9382 41.0061C52.0556 41.5427 45.6009 44.2965 42.553 46.7046C42.4065 47.005 42.2045 47.2736 41.9443 47.508C41.068 48.2972 39.6263 48.5955 37.9262 48.5955C35.1084 48.5955 31.5815 47.7768 28.7423 47.0195C28.5247 46.9613 28.341 46.9123 28.1966 46.8752C27.9258 46.8059 27.7625 46.5302 27.8318 46.2594C27.9011 45.9886 28.1763 45.8252 28.4476 45.8948C28.5946 45.9325 28.7818 45.9823 29.0034 46.0414C35.6877 47.8246 39.8137 48.065 41.2667 46.756C41.4449 46.5953 41.58 46.4089 41.6722 46.1945C41.6736 46.1911 41.6744 46.1872 41.6756 46.1838C41.6769 46.181 41.6778 46.1783 41.6789 46.1756C41.7054 46.1122 41.7285 46.0467 41.7474 45.9783C41.7489 45.9732 41.7506 45.9681 41.7518 45.9627C41.835 45.653 41.8438 45.2938 41.7787 44.8802C41.1584 40.9322 31.039 38.8311 23.971 38.8311C22.6247 38.8311 21.5032 38.9135 20.7272 39.0689C18.2139 39.5631 14.3702 41.3054 8.98782 44.3907C8.99307 44.3968 8.99878 44.4037 9.00402 44.4097C9.06482 44.4796 9.12654 44.552 9.1898 44.6279C9.19119 44.6294 9.19258 44.6311 9.19381 44.6327C9.25939 44.7117 9.32635 44.7939 9.39424 44.8791C9.3981 44.884 9.4018 44.8887 9.40581 44.8936C9.47247 44.9772 9.54036 45.0639 9.60902 45.1533C9.61643 45.163 9.62368 45.1724 9.63109 45.1821C9.69929 45.2712 9.76857 45.3627 9.83862 45.4565C9.84525 45.4654 9.85189 45.4744 9.85867 45.4835C10.0818 45.7834 10.3134 46.1081 10.551 46.4517C10.5552 46.4577 10.5595 46.4639 10.5638 46.47C10.6413 46.5822 10.7193 46.6966 10.798 46.8126C10.803 46.8198 10.8078 46.8271 10.8128 46.8345C11.0571 47.1955 11.306 47.5739 11.5567 47.9638C11.5583 47.9664 11.56 47.9689 11.5615 47.9713C11.6442 48.0999 11.7271 48.2298 11.8099 48.3608C11.8132 48.3657 11.8162 48.3708 11.8196 48.3759C12.073 48.7763 12.327 49.186 12.5785 49.5995C12.5788 49.6 12.5789 49.6004 12.5792 49.601C12.6616 49.7364 12.7437 49.8723 12.8255 50.0082C12.8292 50.0146 12.8331 50.0209 12.8368 50.0272C12.9176 50.1619 12.9982 50.2968 13.0782 50.4316C13.0807 50.4358 13.0833 50.4401 13.0858 50.4443C13.2497 50.7206 13.4115 50.9965 13.5703 51.2705C13.5704 51.2708 13.5706 51.2711 13.5708 51.2713C13.6482 51.4052 13.725 51.5384 13.801 51.6711C13.8057 51.6796 13.8105 51.6876 13.8152 51.6959C13.8894 51.8255 13.9628 51.9544 14.0352 52.0824C14.0404 52.0918 14.0457 52.101 14.0509 52.1104C14.2009 52.3754 14.3469 52.6365 14.4882 52.8925C14.4885 52.893 14.4887 52.8936 14.489 52.894C14.5569 53.017 14.6235 53.1388 14.6891 53.259C14.696 53.2718 14.7031 53.2847 14.7102 53.2977C14.7738 53.4143 14.8361 53.5297 14.8974 53.6436C14.9039 53.6553 14.9102 53.6672 14.9165 53.6789C14.9784 53.794 15.039 53.9078 15.0983 54.0195C15.102 54.0266 15.1057 54.0335 15.1092 54.0405C15.2294 54.2676 15.3438 54.4868 15.4515 54.6973C15.458 54.7101 15.4646 54.7231 15.4712 54.7357C15.5215 54.8343 15.5704 54.9306 15.6178 55.0249C15.6252 55.0398 15.6326 55.0542 15.64 55.069C15.6872 55.1631 15.7331 55.2554 15.7769 55.345C15.7815 55.3545 15.786 55.3633 15.7905 55.3725C15.881 55.5578 15.9645 55.7325 16.04 55.8956C16.043 55.9024 16.0466 55.9098 16.0497 55.9166C18.7318 54.9136 21.0933 54.4253 23.256 54.4253C25.7366 54.4253 27.7238 55.0647 29.6456 55.6825C31.6824 56.3376 33.7887 57.0152 36.6176 57.0152C37.0837 57.0152 37.5651 56.9965 38.0487 56.9598C40.4906 56.7822 46.0945 54.3285 51.3743 51.1255C56.9129 47.7657 60.5594 44.4787 60.4486 42.9465C60.3252 41.2642 58.633 40.911 57.2352 40.911Z" fill="#2C441F"/>
<path d="M8.98073 40.3303C9.06451 40.3303 9.14968 40.3093 9.22806 40.2653C9.3174 40.2152 18.2027 35.2408 22.1896 34.2406C26.0973 33.2733 40.8313 38.3739 40.9796 38.4255C40.9895 38.429 40.9998 38.4298 41.0095 38.4327C41.0268 38.4375 41.0439 38.4421 41.0617 38.4451C41.0799 38.4483 41.0978 38.4494 41.1161 38.4505C41.126 38.4512 41.1357 38.4537 41.1459 38.4537C41.151 38.4537 41.1556 38.4522 41.1607 38.4522C41.1799 38.4517 41.1985 38.4491 41.2174 38.4465C41.2322 38.4443 41.2468 38.4428 41.2612 38.4392C41.2778 38.4353 41.2936 38.4295 41.3098 38.4241C41.3249 38.4188 41.3399 38.4141 41.3544 38.4076C41.3695 38.4008 41.3834 38.3923 41.3976 38.3843C41.4113 38.3762 41.4252 38.3685 41.4382 38.3596C41.452 38.3499 41.4644 38.3384 41.4773 38.3272C41.4888 38.3172 41.5005 38.3074 41.5114 38.2965C41.5229 38.2843 41.5329 38.2709 41.5434 38.2576C41.5533 38.2448 41.5633 38.2323 41.5721 38.2184C41.5804 38.2056 41.5872 38.1916 41.5941 38.1778C41.6028 38.1615 41.6108 38.1453 41.6176 38.128C41.6195 38.1231 41.6222 38.1189 41.6239 38.1139C41.6275 38.1041 41.6284 38.0939 41.6312 38.084C41.636 38.0669 41.6406 38.0496 41.6435 38.0319C41.6468 38.014 41.6478 37.9962 41.6489 37.9783C41.6495 37.968 41.6522 37.9581 41.6522 37.9476V31.6449C41.7096 31.6856 41.7753 31.7156 41.8472 31.7298C43.8065 32.118 45.6728 32.3149 47.3945 32.3149C51.7642 32.3149 55.2078 31.0845 57.6287 28.6585C61.016 25.2714 62.0755 19.8162 60.6932 12.883C60.6532 12.6827 60.4967 12.526 60.2963 12.4859C58.3357 12.0933 56.4664 11.8944 54.7404 11.8944C50.386 11.8944 46.9453 13.1219 44.5133 15.5439C43.2147 16.845 42.2598 18.4516 41.6522 20.3281V9.87099C42.3397 6.38264 41.7898 3.62428 40.059 1.89369C38.8086 0.636937 37.0418 0 34.8082 0C33.9406 0 33 0.0990587 32.0129 0.294399C31.812 0.334053 31.6551 0.490973 31.615 0.691867C30.9114 4.21832 31.4616 7.00122 33.2053 8.7386C34.4521 9.98532 36.2149 10.6175 38.4448 10.6176C39.135 10.6176 39.8717 10.5541 40.6403 10.4305V23.1769C40.2258 22.2271 39.6661 21.3926 38.9595 20.6863C37.2578 18.9898 34.8548 18.1296 31.8177 18.1296C30.6312 18.1296 29.3473 18.265 28.002 18.5324C27.8011 18.5724 27.6442 18.7295 27.6042 18.9302C26.6491 23.7356 27.3919 27.5227 29.7514 29.8816C31.445 31.5801 33.8413 32.4414 36.8741 32.4415C38.0439 32.4415 39.3116 32.3085 40.6404 32.0476V37.2403C37.6323 36.225 25.6838 32.3332 21.9452 33.2592C17.8259 34.2923 9.10216 39.1758 8.73293 39.3832C8.48929 39.5201 8.40258 39.8285 8.53944 40.0723C8.63171 40.2369 8.80359 40.3303 8.98073 40.3303ZM42.2643 30.1687L48.9982 23.1442L48.4468 16.3869C48.4239 16.1083 48.6312 15.8642 48.91 15.8415C49.1882 15.8187 49.4327 16.026 49.4554 16.3047L49.934 22.168L53.8126 18.122C54.0061 17.92 54.3263 17.9136 54.5281 18.1069C54.7299 18.3002 54.7367 18.6205 54.5432 18.8224L46.2402 27.484L52.2716 26.5352C52.5483 26.4918 52.8071 26.6804 52.8501 26.9564C52.8936 27.2326 52.7051 27.4915 52.429 27.535L45.0839 28.6904L42.9614 30.9046C42.7676 30.8719 42.5732 30.8379 42.3775 30.801C42.3369 30.5887 42.2996 30.3781 42.2643 30.1687ZM40.1717 31.1066C39.4994 31.23 38.8472 31.3172 38.218 31.3698C38.6613 31.3323 39.116 31.2778 39.5813 31.2056L34.3985 25.8088L31.4138 26.939C31.3547 26.9614 31.2942 26.9719 31.2347 26.9719C31.0304 26.9719 30.838 26.8472 30.7611 26.6449C30.6622 26.3835 30.7938 26.0914 31.0555 25.9924L33.6363 25.0152L31.8014 23.1046C31.6076 22.9029 31.6142 22.5826 31.8157 22.3889C32.0172 22.1953 32.3376 22.2018 32.5314 22.4034L37.3791 27.4513L37.6108 23.9163C37.6292 23.6372 37.87 23.4277 38.149 23.4443C38.4278 23.4625 38.6392 23.7035 38.621 23.9825L38.3286 28.44L40.2786 30.4707C40.6253 28.2288 40.5573 26.2606 40.0844 24.6195C40.602 26.4138 40.636 28.5989 40.1717 31.1066Z" fill="#2C441F"/>
</svg>
